# xmcd
#
# Track frame offsets:
# 150
# 20804
# 41206
# 55371
# 65876
# 80221
# 91788
# 103991
# 116347
# 126863
# 136553
# 147749
# 159917
# 173857
# 185322
# 201395
# 251369
# 263365
# 275568
# 288708
#
# Disc length: 4089 seconds
#
#
# Revision: 0
# Processed by: cddbd v1.5.1PL2 Copyright (c) Steve Scherf et al.
# Submitted via: FreeRIP 2.944 
#
DISCID=330ff714
DTITLE=Creedence Clearwater Revival - Chronicle Vol 1
DYEAR=1994
DGENRE=Classic Rock
TTITLE0=Suzie Q
TTITLE1=I Put a Spell on You
TTITLE2=Proud Mary
TTITLE3=Bad Moon Rising
TTITLE4=Lodi
TTITLE5=Green River
TTITLE6=Commotion
TTITLE7=Down on the Corner
TTITLE8=Fortunate Son
TTITLE9=Travelin' Band
TTITLE10=Who'll Stop the Rain
TTITLE11=Up Around the Bend
TTITLE12=Run Through the Jungle
TTITLE13=Lookin' at my Back Door
TTITLE14=Long as I can See the Light
TTITLE15=Heard It Through the Grapevine
TTITLE16=Have You Ever Seen the Rain
TTITLE17=Hey Tonight
TTITLE18=Sweet Hitch-Hiker
TTITLE19=Someday Never Comes
EXTD=
EXTT0=
EXTT1=
EXTT2=
EXTT3=
EXTT4=
EXTT5=
EXTT6=
EXTT7=
EXTT8=
EXTT9=
EXTT10=
EXTT11=
EXTT12=
EXTT13=
EXTT14=
EXTT15=
EXTT16=
EXTT17=
EXTT18=
EXTT19=
PLAYORDER=
